# xmcd
#
# Track frame offsets:
#	150
#	14470
#	39000
#	53555
#	66640
#	89255
#	108951
#	122874
#	133083
#	143669
#	159537
#
# Disc length: 2550 seconds
#
# Revision: 1
# Processed by: cddbd v1.4PL0 Copyright (c) Steve Scherf et al.
# Submitted via: EasyCDDAExtractor 6.2.0.3
#
DISCID=9109f40b
DTITLE=The Grimple Twins - Yesterday's Music Recorded Tomorrow
DYEAR=1900
DGENRE=
TTITLE0=Song Number 12.
TTITLE1=By God, There is No Excuse For May.
TTITLE2=Terrorist Dynamics.
TTITLE3=Until
TTITLE4=Here's Where the Clowns Come in
TTITLE5=The Death of Laura
TTITLE6=Bored of You
TTITLE7=I Guess My Pistons Need Cleaning
TTITLE8=For Denee
TTITLE9=Weckl
TTITLE10=Low
EXTD=
EXTT0=
EXTT1=
EXTT2=
EXTT3=
EXTT4=
EXTT5=
EXTT6=
EXTT7=
EXTT8=
EXTT9=
EXTT10=
PLAYORDER=
